<svg width="16" height="12" viewBox="0 0 16 12" fill="none" xmlns="http://www.w3.org/2000/svg">
<path d="M14.5469 8.76562L15.1562 9.11719C15.2266 9.14062 15.25 9.23438 15.2266 9.30469C15.0625 9.82031 14.8047 10.2656 14.4531 10.6641C14.4062 10.7109 14.3125 10.7344 14.2422 10.6875L13.6328 10.3359C13.375 10.5469 13.0938 10.7344 12.7656 10.8281V11.5312C12.7656 11.625 12.7188 11.6953 12.6484 11.6953C12.1328 11.8125 11.6172 11.8125 11.0781 11.6953C11.0078 11.6953 10.9609 11.625 10.9609 11.5312V10.8281C10.6328 10.7344 10.3516 10.5469 10.0938 10.3359L9.48438 10.6875C9.41406 10.7344 9.32031 10.7109 9.27344 10.6641C8.92188 10.2656 8.64062 9.82031 8.5 9.30469C8.47656 9.23438 8.5 9.14062 8.57031 9.11719L9.17969 8.76562C9.10938 8.4375 9.10938 8.08594 9.17969 7.75781L8.57031 7.40625C8.5 7.38281 8.47656 7.28906 8.5 7.21875C8.64062 6.70312 8.92188 6.25781 9.27344 5.85938C9.32031 5.8125 9.41406 5.78906 9.48438 5.83594L10.0938 6.1875C10.3516 5.97656 10.6328 5.78906 10.9609 5.69531V4.99219C10.9609 4.89844 11.0078 4.82812 11.0781 4.82812C11.5938 4.71094 12.1094 4.71094 12.6484 4.82812C12.7188 4.82812 12.7656 4.89844 12.7656 4.99219V5.69531C13.0938 5.78906 13.375 5.97656 13.6328 6.1875L14.2422 5.83594C14.3125 5.78906 14.4062 5.8125 14.4531 5.85938C14.8047 6.25781 15.0625 6.70312 15.2266 7.21875C15.25 7.28906 15.2266 7.38281 15.1562 7.40625L14.5469 7.75781C14.6172 8.08594 14.6172 8.4375 14.5469 8.76562ZM11.875 9.39844C12.4844 9.39844 13 8.88281 13 8.25C13 7.64062 12.4844 7.125 11.875 7.125C11.2422 7.125 10.7266 7.64062 10.7266 8.25C10.7266 8.88281 11.2422 9.39844 11.875 9.39844ZM5.5 6C3.83594 6 2.5 4.66406 2.5 3C2.5 1.35938 3.83594 0 5.5 0C7.14062 0 8.5 1.35938 8.5 3C8.5 4.66406 7.14062 6 5.5 6ZM10.2109 11.3203V11.5312C10.2109 11.625 10.2344 11.7188 10.2578 11.8125C10.0703 11.9297 9.85938 12 9.625 12H1.375C0.742188 12 0.25 11.5078 0.25 10.875V9.91406C0.25 8.17969 1.65625 6.75 3.39062 6.75H3.78906C4.30469 7.00781 4.89062 7.125 5.5 7.125C6.10938 7.125 6.67188 7.00781 7.1875 6.75H7.58594C7.67969 6.75 7.77344 6.77344 7.86719 6.79688C7.84375 6.86719 7.79688 6.91406 7.77344 6.98438C7.65625 7.40625 7.82031 7.85156 8.19531 8.0625L8.38281 8.17969C8.38281 8.22656 8.38281 8.29688 8.38281 8.34375L8.19531 8.46094C7.82031 8.67188 7.65625 9.11719 7.77344 9.53906C7.96094 10.125 8.28906 10.7109 8.73438 11.1562C8.89844 11.3438 9.15625 11.4609 9.39062 11.4609C9.55469 11.4609 9.71875 11.4141 9.85938 11.3438L10.0469 11.2266C10.0938 11.25 10.1406 11.2969 10.2109 11.3203Z" fill="#6B7280"/>
</svg>
